<svg xmlns="http://www.w3.org/2000/svg" version="1.1" viewBox="0 0 800 800" fill="currentColor">
  <path d="M400,78.8c-179.5,0-325,145.5-325,325s145.5,325,325,325,325-145.5,325-325c-.2-179.4-145.6-324.8-325-325ZM533.1,541.9c-6.2,6.2-14.5,9.7-23.3,9.7s-17.1-3.4-23.3-9.6h0c-1-.9-2.3-2.3-4.6-4.6,0,0-75.4-75.4-82-82l-86.5,86.5c-6.2,6.2-14.5,9.6-23.3,9.6-8.8,0-17.1-3.4-23.3-9.7-12.8-12.8-12.8-33.7,0-46.5l86.5-86.5-86.5-86.5c-12.8-12.9-12.8-33.8,0-46.6,6.2-6.2,14.5-9.6,23.3-9.6s17.1,3.4,23.3,9.6l86.5,86.5,86.5-86.5c6.2-6.2,14.5-9.6,23.3-9.6s17.1,3.4,23.3,9.7c12.8,12.8,12.8,33.7,0,46.5l-86.5,86.5,86.5,86.5c12.9,12.8,12.9,33.7,0,46.6Z"/>
</svg>